<svg width="812" height="307" viewBox="0 0 812 307" fill="none" xmlns="http://www.w3.org/2000/svg">
<g filter="url(#filter0_d_1_6)">
<path d="M143.943 111V41.1818H190.17V53.3523H158.705V69.9886H187.102V82.1591H158.705V111H143.943ZM230.125 88.7045V58.6364H244.648V111H230.705V101.489H230.159C228.977 104.557 227.011 107.023 224.261 108.886C221.534 110.75 218.205 111.682 214.273 111.682C210.773 111.682 207.693 110.886 205.034 109.295C202.375 107.705 200.295 105.443 198.795 102.511C197.318 99.5795 196.568 96.0682 196.545 91.9773V58.6364H211.068V89.3864C211.091 92.4773 211.92 94.9205 213.557 96.7159C215.193 98.5114 217.386 99.4091 220.136 99.4091C221.886 99.4091 223.523 99.0114 225.045 98.2159C226.568 97.3977 227.795 96.1932 228.727 94.6023C229.682 93.0114 230.148 91.0455 230.125 88.7045ZM270.787 41.1818V111H256.264V41.1818H270.787ZM296.943 41.1818V111H282.42V41.1818H296.943ZM314.287 227H289.537V157.182H314.491C321.514 157.182 327.56 158.58 332.628 161.375C337.696 164.148 341.594 168.136 344.321 173.341C347.071 178.545 348.446 184.773 348.446 192.023C348.446 199.295 347.071 205.545 344.321 210.773C341.594 216 337.673 220.011 332.56 222.807C327.469 225.602 321.378 227 314.287 227ZM304.298 214.352H313.673C318.037 214.352 321.707 213.58 324.685 212.034C327.685 210.466 329.935 208.045 331.435 204.773C332.957 201.477 333.719 197.227 333.719 192.023C333.719 186.864 332.957 182.648 331.435 179.375C329.935 176.102 327.696 173.693 324.719 172.148C321.741 170.602 318.071 169.83 313.707 169.83H304.298V214.352ZM382.972 228.023C377.585 228.023 372.949 226.932 369.062 224.75C365.199 222.545 362.222 219.432 360.131 215.409C358.04 211.364 356.994 206.58 356.994 201.057C356.994 195.67 358.04 190.943 360.131 186.875C362.222 182.807 365.165 179.636 368.96 177.364C372.778 175.091 377.256 173.955 382.392 173.955C385.847 173.955 389.063 174.511 392.04 175.625C395.04 176.716 397.653 178.364 399.881 180.568C402.131 182.773 403.881 185.545 405.131 188.886C406.381 192.205 407.006 196.091 407.006 200.545V204.534H362.79V195.534H393.335C393.335 193.443 392.881 191.591 391.972 189.977C391.063 188.364 389.801 187.102 388.188 186.193C386.597 185.261 384.744 184.795 382.631 184.795C380.426 184.795 378.472 185.307 376.767 186.33C375.085 187.33 373.767 188.682 372.812 190.386C371.858 192.068 371.369 193.943 371.347 196.011V204.568C371.347 207.159 371.824 209.398 372.778 211.284C373.756 213.17 375.131 214.625 376.903 215.648C378.676 216.67 380.778 217.182 383.21 217.182C384.824 217.182 386.301 216.955 387.642 216.5C388.983 216.045 390.131 215.364 391.085 214.455C392.04 213.545 392.767 212.432 393.267 211.114L406.699 212C406.017 215.227 404.619 218.045 402.506 220.455C400.415 222.841 397.71 224.705 394.392 226.045C391.097 227.364 387.29 228.023 382.972 228.023ZM463.895 174.636L445.588 227H429.224L410.918 174.636H426.259L437.134 212.102H437.679L448.52 174.636H463.895ZM493.503 228.023C488.116 228.023 483.48 226.932 479.594 224.75C475.73 222.545 472.753 219.432 470.662 215.409C468.571 211.364 467.526 206.58 467.526 201.057C467.526 195.67 468.571 190.943 470.662 186.875C472.753 182.807 475.696 179.636 479.491 177.364C483.31 175.091 487.787 173.955 492.923 173.955C496.378 173.955 499.594 174.511 502.571 175.625C505.571 176.716 508.185 178.364 510.412 180.568C512.662 182.773 514.412 185.545 515.662 188.886C516.912 192.205 517.537 196.091 517.537 200.545V204.534H473.321V195.534H503.866C503.866 193.443 503.412 191.591 502.503 189.977C501.594 188.364 500.332 187.102 498.719 186.193C497.128 185.261 495.276 184.795 493.162 184.795C490.957 184.795 489.003 185.307 487.298 186.33C485.616 187.33 484.298 188.682 483.344 190.386C482.389 192.068 481.901 193.943 481.878 196.011V204.568C481.878 207.159 482.355 209.398 483.31 211.284C484.287 213.17 485.662 214.625 487.435 215.648C489.207 216.67 491.31 217.182 493.741 217.182C495.355 217.182 496.832 216.955 498.173 216.5C499.514 216.045 500.662 215.364 501.616 214.455C502.571 213.545 503.298 212.432 503.798 211.114L517.23 212C516.548 215.227 515.151 218.045 513.037 220.455C510.946 222.841 508.241 224.705 504.923 226.045C501.628 227.364 497.821 228.023 493.503 228.023ZM541.537 157.182V227H527.014V157.182H541.537ZM576.83 228.023C571.534 228.023 566.955 226.898 563.091 224.648C559.25 222.375 556.284 219.216 554.193 215.17C552.102 211.102 551.057 206.386 551.057 201.023C551.057 195.614 552.102 190.886 554.193 186.841C556.284 182.773 559.25 179.614 563.091 177.364C566.955 175.091 571.534 173.955 576.83 173.955C582.125 173.955 586.693 175.091 590.534 177.364C594.398 179.614 597.375 182.773 599.466 186.841C601.557 190.886 602.602 195.614 602.602 201.023C602.602 206.386 601.557 211.102 599.466 215.17C597.375 219.216 594.398 222.375 590.534 224.648C586.693 226.898 582.125 228.023 576.83 228.023ZM576.898 216.773C579.307 216.773 581.318 216.091 582.932 214.727C584.545 213.341 585.761 211.455 586.58 209.068C587.42 206.682 587.841 203.966 587.841 200.92C587.841 197.875 587.42 195.159 586.58 192.773C585.761 190.386 584.545 188.5 582.932 187.114C581.318 185.727 579.307 185.034 576.898 185.034C574.466 185.034 572.42 185.727 570.761 187.114C569.125 188.5 567.886 190.386 567.045 192.773C566.227 195.159 565.818 197.875 565.818 200.92C565.818 203.966 566.227 206.682 567.045 209.068C567.886 211.455 569.125 213.341 570.761 214.727C572.42 216.091 574.466 216.773 576.898 216.773ZM612.045 246.636V174.636H626.364V183.432H627.011C627.648 182.023 628.568 180.591 629.773 179.136C631 177.659 632.591 176.432 634.545 175.455C636.523 174.455 638.977 173.955 641.909 173.955C645.727 173.955 649.25 174.955 652.477 176.955C655.705 178.932 658.284 181.92 660.216 185.92C662.148 189.898 663.114 194.886 663.114 200.886C663.114 206.727 662.17 211.659 660.284 215.682C658.42 219.682 655.875 222.716 652.648 224.784C649.443 226.83 645.852 227.852 641.875 227.852C639.057 227.852 636.659 227.386 634.682 226.455C632.727 225.523 631.125 224.352 629.875 222.943C628.625 221.511 627.67 220.068 627.011 218.614H626.568V246.636H612.045ZM626.261 200.818C626.261 203.932 626.693 206.648 627.557 208.966C628.42 211.284 629.67 213.091 631.307 214.386C632.943 215.659 634.932 216.295 637.273 216.295C639.636 216.295 641.636 215.648 643.273 214.352C644.909 213.034 646.148 211.216 646.989 208.898C647.852 206.557 648.284 203.864 648.284 200.818C648.284 197.795 647.864 195.136 647.023 192.841C646.182 190.545 644.943 188.75 643.307 187.455C641.67 186.159 639.659 185.511 637.273 185.511C634.909 185.511 632.909 186.136 631.273 187.386C629.659 188.636 628.42 190.409 627.557 192.705C626.693 195 626.261 197.705 626.261 200.818ZM696.659 228.023C691.273 228.023 686.636 226.932 682.75 224.75C678.886 222.545 675.909 219.432 673.818 215.409C671.727 211.364 670.682 206.58 670.682 201.057C670.682 195.67 671.727 190.943 673.818 186.875C675.909 182.807 678.852 179.636 682.648 177.364C686.466 175.091 690.943 173.955 696.08 173.955C699.534 173.955 702.75 174.511 705.727 175.625C708.727 176.716 711.341 178.364 713.568 180.568C715.818 182.773 717.568 185.545 718.818 188.886C720.068 192.205 720.693 196.091 720.693 200.545V204.534H676.477V195.534H707.023C707.023 193.443 706.568 191.591 705.659 189.977C704.75 188.364 703.489 187.102 701.875 186.193C700.284 185.261 698.432 184.795 696.318 184.795C694.114 184.795 692.159 185.307 690.455 186.33C688.773 187.33 687.455 188.682 686.5 190.386C685.545 192.068 685.057 193.943 685.034 196.011V204.568C685.034 207.159 685.511 209.398 686.466 211.284C687.443 213.17 688.818 214.625 690.591 215.648C692.364 216.67 694.466 217.182 696.898 217.182C698.511 217.182 699.989 216.955 701.33 216.5C702.67 216.045 703.818 215.364 704.773 214.455C705.727 213.545 706.455 212.432 706.955 211.114L720.386 212C719.705 215.227 718.307 218.045 716.193 220.455C714.102 222.841 711.398 224.705 708.08 226.045C704.784 227.364 700.977 228.023 696.659 228.023ZM730.17 227V174.636H744.25V183.773H744.795C745.75 180.523 747.352 178.068 749.602 176.409C751.852 174.727 754.443 173.886 757.375 173.886C758.102 173.886 758.886 173.932 759.727 174.023C760.568 174.114 761.307 174.239 761.943 174.398V187.284C761.261 187.08 760.318 186.898 759.114 186.739C757.909 186.58 756.807 186.5 755.807 186.5C753.67 186.5 751.761 186.966 750.08 187.898C748.42 188.807 747.102 190.08 746.125 191.716C745.17 193.352 744.693 195.239 744.693 197.375V227H730.17Z" fill="#2A8BA9"/>
<path d="M368.943 61.2614C368.67 58.5114 367.5 56.375 365.432 54.8523C363.364 53.3295 360.557 52.5682 357.011 52.5682C354.602 52.5682 352.568 52.9091 350.909 53.5909C349.25 54.25 347.977 55.1705 347.091 56.3523C346.227 57.5341 345.795 58.875 345.795 60.375C345.75 61.625 346.011 62.7159 346.58 63.6477C347.17 64.5795 347.977 65.3864 349 66.0682C350.023 66.7273 351.205 67.3068 352.545 67.8068C353.886 68.2841 355.318 68.6932 356.841 69.0341L363.114 70.5341C366.159 71.2159 368.955 72.125 371.5 73.2614C374.045 74.3977 376.25 75.7955 378.114 77.4545C379.977 79.1136 381.42 81.0682 382.443 83.3182C383.489 85.5682 384.023 88.1477 384.045 91.0568C384.023 95.3295 382.932 99.0341 380.773 102.17C378.636 105.284 375.545 107.705 371.5 109.432C367.477 111.136 362.625 111.989 356.943 111.989C351.307 111.989 346.398 111.125 342.216 109.398C338.057 107.67 334.807 105.114 332.466 101.727C330.148 98.3182 328.932 94.1023 328.818 89.0795H343.102C343.261 91.4205 343.932 93.375 345.114 94.9432C346.318 96.4886 347.92 97.6591 349.92 98.4545C351.943 99.2273 354.227 99.6136 356.773 99.6136C359.273 99.6136 361.443 99.25 363.284 98.5227C365.148 97.7955 366.591 96.7841 367.614 95.4886C368.636 94.1932 369.148 92.7045 369.148 91.0227C369.148 89.4545 368.682 88.1364 367.75 87.0682C366.841 86 365.5 85.0909 363.727 84.3409C361.977 83.5909 359.83 82.9091 357.284 82.2955L349.682 80.3864C343.795 78.9545 339.148 76.7159 335.739 73.6705C332.33 70.625 330.636 66.5227 330.659 61.3636C330.636 57.1364 331.761 53.4432 334.034 50.2841C336.33 47.125 339.477 44.6591 343.477 42.8864C347.477 41.1136 352.023 40.2273 357.114 40.2273C362.295 40.2273 366.818 41.1136 370.682 42.8864C374.568 44.6591 377.591 47.125 379.75 50.2841C381.909 53.4432 383.023 57.1023 383.091 61.2614H368.943ZM421.554 58.6364V69.5455H390.02V58.6364H421.554ZM397.179 46.0909H411.702V94.9091C411.702 96.25 411.906 97.2955 412.315 98.0455C412.724 98.7727 413.293 99.2841 414.02 99.5795C414.77 99.875 415.634 100.023 416.611 100.023C417.293 100.023 417.974 99.9659 418.656 99.8523C419.338 99.7159 419.861 99.6136 420.224 99.5455L422.509 110.352C421.781 110.58 420.759 110.841 419.44 111.136C418.122 111.455 416.52 111.648 414.634 111.716C411.134 111.852 408.065 111.386 405.429 110.318C402.815 109.25 400.781 107.591 399.327 105.341C397.872 103.091 397.156 100.25 397.179 96.8182V46.0909ZM445.946 111.989C442.605 111.989 439.628 111.409 437.014 110.25C434.401 109.068 432.332 107.33 430.81 105.034C429.31 102.716 428.56 99.8295 428.56 96.375C428.56 93.4659 429.094 91.0227 430.162 89.0455C431.23 87.0682 432.685 85.4773 434.526 84.2727C436.366 83.0682 438.457 82.1591 440.798 81.5455C443.162 80.9318 445.639 80.5 448.23 80.25C451.276 79.9318 453.73 79.6364 455.594 79.3636C457.457 79.0682 458.81 78.6364 459.651 78.0682C460.491 77.5 460.912 76.6591 460.912 75.5455V75.3409C460.912 73.1818 460.23 71.5114 458.866 70.3295C457.526 69.1477 455.616 68.5568 453.139 68.5568C450.526 68.5568 448.446 69.1364 446.901 70.2955C445.355 71.4318 444.332 72.8636 443.832 74.5909L430.401 73.5C431.082 70.3182 432.423 67.5682 434.423 65.25C436.423 62.9091 439.003 61.1136 442.162 59.8636C445.344 58.5909 449.026 57.9545 453.207 57.9545C456.116 57.9545 458.901 58.2955 461.56 58.9773C464.241 59.6591 466.616 60.7159 468.685 62.1477C470.776 63.5795 472.423 65.4205 473.628 67.6705C474.832 69.8977 475.435 72.5682 475.435 75.6818V111H461.662V103.739H461.253C460.412 105.375 459.287 106.818 457.878 108.068C456.469 109.295 454.776 110.261 452.798 110.966C450.821 111.648 448.537 111.989 445.946 111.989ZM450.105 101.966C452.241 101.966 454.128 101.545 455.764 100.705C457.401 99.8409 458.685 98.6818 459.616 97.2273C460.548 95.7727 461.014 94.125 461.014 92.2841V86.7273C460.56 87.0227 459.935 87.2955 459.139 87.5455C458.366 87.7727 457.491 87.9886 456.514 88.1932C455.537 88.375 454.56 88.5455 453.582 88.7045C452.605 88.8409 451.719 88.9659 450.923 89.0795C449.219 89.3295 447.73 89.7273 446.457 90.2727C445.185 90.8182 444.196 91.5568 443.491 92.4886C442.787 93.3977 442.435 94.5341 442.435 95.8977C442.435 97.875 443.151 99.3864 444.582 100.432C446.037 101.455 447.878 101.966 450.105 101.966ZM510.361 112.023C504.997 112.023 500.384 110.886 496.52 108.614C492.679 106.318 489.724 103.136 487.656 99.0682C485.611 95 484.588 90.3182 484.588 85.0227C484.588 79.6591 485.622 74.9545 487.69 70.9091C489.781 66.8409 492.747 63.6705 496.588 61.3977C500.429 59.1023 504.997 57.9545 510.293 57.9545C514.861 57.9545 518.861 58.7841 522.293 60.4432C525.724 62.1023 528.44 64.4318 530.44 67.4318C532.44 70.4318 533.543 73.9545 533.747 78H520.043C519.656 75.3864 518.634 73.2841 516.974 71.6932C515.338 70.0795 513.19 69.2727 510.531 69.2727C508.281 69.2727 506.315 69.8864 504.634 71.1136C502.974 72.3182 501.679 74.0795 500.747 76.3977C499.815 78.7159 499.349 81.5227 499.349 84.8182C499.349 88.1591 499.804 91 500.713 93.3409C501.645 95.6818 502.952 97.4659 504.634 98.6932C506.315 99.9205 508.281 100.534 510.531 100.534C512.19 100.534 513.679 100.193 514.997 99.5114C516.338 98.8295 517.44 97.8409 518.304 96.5455C519.19 95.2273 519.77 93.6477 520.043 91.8068H533.747C533.52 95.8068 532.429 99.3295 530.474 102.375C528.543 105.398 525.872 107.761 522.463 109.466C519.054 111.17 515.02 112.023 510.361 112.023ZM556.205 95.9318L556.239 78.5114H558.352L575.125 58.6364H591.795L569.261 84.9545H565.818L556.205 95.9318ZM543.045 111V41.1818H557.568V111H543.045ZM575.773 111L560.364 88.1932L570.045 77.9318L592.784 111H575.773ZM70.7841 227L50.8068 157.182H66.9318L78.4886 205.693H79.0682L91.8182 157.182H105.625L118.341 205.795H118.955L130.511 157.182H146.636L126.659 227H112.273L98.9773 181.352H98.4318L85.1705 227H70.7841ZM172.503 228.023C167.116 228.023 162.48 226.932 158.594 224.75C154.73 222.545 151.753 219.432 149.662 215.409C147.571 211.364 146.526 206.58 146.526 201.057C146.526 195.67 147.571 190.943 149.662 186.875C151.753 182.807 154.696 179.636 158.491 177.364C162.31 175.091 166.787 173.955 171.923 173.955C175.378 173.955 178.594 174.511 181.571 175.625C184.571 176.716 187.185 178.364 189.412 180.568C191.662 182.773 193.412 185.545 194.662 188.886C195.912 192.205 196.537 196.091 196.537 200.545V204.534H152.321V195.534H182.866C182.866 193.443 182.412 191.591 181.503 189.977C180.594 188.364 179.332 187.102 177.719 186.193C176.128 185.261 174.276 184.795 172.162 184.795C169.957 184.795 168.003 185.307 166.298 186.33C164.616 187.33 163.298 188.682 162.344 190.386C161.389 192.068 160.901 193.943 160.878 196.011V204.568C160.878 207.159 161.355 209.398 162.31 211.284C163.287 213.17 164.662 214.625 166.435 215.648C168.207 216.67 170.31 217.182 172.741 217.182C174.355 217.182 175.832 216.955 177.173 216.5C178.514 216.045 179.662 215.364 180.616 214.455C181.571 213.545 182.298 212.432 182.798 211.114L196.23 212C195.548 215.227 194.151 218.045 192.037 220.455C189.946 222.841 187.241 224.705 183.923 226.045C180.628 227.364 176.821 228.023 172.503 228.023ZM206.287 227V157.182H220.81V183.432H221.253C221.889 182.023 222.81 180.591 224.014 179.136C225.241 177.659 226.832 176.432 228.787 175.455C230.764 174.455 233.219 173.955 236.151 173.955C239.969 173.955 243.491 174.955 246.719 176.955C249.946 178.932 252.526 181.92 254.457 185.92C256.389 189.898 257.355 194.886 257.355 200.886C257.355 206.727 256.412 211.659 254.526 215.682C252.662 219.682 250.116 222.716 246.889 224.784C243.685 226.83 240.094 227.852 236.116 227.852C233.298 227.852 230.901 227.386 228.923 226.455C226.969 225.523 225.366 224.352 224.116 222.943C222.866 221.511 221.912 220.068 221.253 218.614H220.605V227H206.287ZM220.503 200.818C220.503 203.932 220.935 206.648 221.798 208.966C222.662 211.284 223.912 213.091 225.548 214.386C227.185 215.659 229.173 216.295 231.514 216.295C233.878 216.295 235.878 215.648 237.514 214.352C239.151 213.034 240.389 211.216 241.23 208.898C242.094 206.557 242.526 203.864 242.526 200.818C242.526 197.795 242.105 195.136 241.264 192.841C240.423 190.545 239.185 188.75 237.548 187.455C235.912 186.159 233.901 185.511 231.514 185.511C229.151 185.511 227.151 186.136 225.514 187.386C223.901 188.636 222.662 190.409 221.798 192.705C220.935 195 220.503 197.705 220.503 200.818Z" fill="#022631"/>
</g>
<defs>
<filter id="filter0_d_1_6" x="0.806824" y="0.227264" width="811.136" height="306.409" filterUnits="userSpaceOnUse" color-interpolation-filters="sRGB">
<feFlood flood-opacity="0" result="BackgroundImageFix"/>
<feColorMatrix in="SourceAlpha" type="matrix" values="0 0 0 0 0 0 0 0 0 0 0 0 0 0 0 0 0 0 127 0" result="hardAlpha"/>
<feOffset dy="10"/>
<feGaussianBlur stdDeviation="25"/>
<feComposite in2="hardAlpha" operator="out"/>
<feColorMatrix type="matrix" values="0 0 0 0 0 0 0 0 0 0 0 0 0 0 0 0 0 0 0.6 0"/>
<feBlend mode="normal" in2="BackgroundImageFix" result="effect1_dropShadow_1_6"/>
<feBlend mode="normal" in="SourceGraphic" in2="effect1_dropShadow_1_6" result="shape"/>
</filter>
</defs>
</svg>
