<svg width="368" height="179" viewBox="0 0 368 179" fill="none" xmlns="http://www.w3.org/2000/svg">
<g filter="url(#filter0_d_1_6)">
<path d="M85.6036 67V40.8182H102.939V45.3821H91.1391V51.6207H101.788V56.1847H91.1391V67H85.6036ZM117.922 58.6392V47.3636H123.368V67H118.139V63.4332H117.935C117.491 64.5838 116.754 65.5085 115.723 66.2074C114.7 66.9062 113.452 67.2557 111.977 67.2557C110.665 67.2557 109.51 66.9574 108.513 66.3608C107.516 65.7642 106.736 64.9162 106.173 63.8168C105.619 62.7173 105.338 61.4006 105.329 59.8665V47.3636H110.776V58.8949C110.784 60.054 111.095 60.9702 111.709 61.6435C112.322 62.3168 113.145 62.6534 114.176 62.6534C114.832 62.6534 115.446 62.5043 116.017 62.206C116.588 61.8991 117.048 61.4474 117.398 60.8509C117.756 60.2543 117.93 59.517 117.922 58.6392ZM133.17 40.8182V67H127.724V40.8182H133.17ZM142.979 40.8182V67H137.533V40.8182H142.979ZM149.483 111H140.201V84.8182H149.559C152.193 84.8182 154.46 85.3423 156.36 86.3906C158.261 87.4304 159.723 88.9261 160.745 90.8778C161.777 92.8295 162.292 95.1648 162.292 97.8835C162.292 100.611 161.777 102.955 160.745 104.915C159.723 106.875 158.252 108.379 156.335 109.428C154.426 110.476 152.142 111 149.483 111ZM145.737 106.257H149.252C150.889 106.257 152.265 105.967 153.382 105.388C154.507 104.8 155.35 103.892 155.913 102.665C156.484 101.429 156.769 99.8352 156.769 97.8835C156.769 95.9489 156.484 94.3679 155.913 93.1406C155.35 91.9134 154.511 91.0099 153.394 90.4304C152.278 89.8509 150.902 89.5611 149.265 89.5611H145.737V106.257ZM175.239 111.384C173.219 111.384 171.481 110.974 170.023 110.156C168.575 109.33 167.458 108.162 166.674 106.653C165.89 105.136 165.498 103.342 165.498 101.271C165.498 99.2514 165.89 97.4787 166.674 95.9531C167.458 94.4276 168.562 93.2386 169.985 92.3864C171.417 91.5341 173.096 91.108 175.022 91.108C176.317 91.108 177.523 91.3168 178.64 91.7344C179.765 92.1435 180.745 92.7614 181.58 93.5881C182.424 94.4148 183.08 95.4545 183.549 96.7074C184.018 97.9517 184.252 99.4091 184.252 101.08V102.575H167.671V99.2003H179.126C179.126 98.4162 178.955 97.7216 178.614 97.1165C178.273 96.5114 177.8 96.0384 177.195 95.6974C176.599 95.348 175.904 95.1733 175.111 95.1733C174.285 95.1733 173.552 95.3651 172.913 95.7486C172.282 96.1236 171.788 96.6307 171.43 97.2699C171.072 97.9006 170.888 98.6037 170.88 99.3793V102.588C170.88 103.56 171.059 104.399 171.417 105.107C171.783 105.814 172.299 106.359 172.964 106.743C173.628 107.126 174.417 107.318 175.329 107.318C175.934 107.318 176.488 107.233 176.991 107.062C177.494 106.892 177.924 106.636 178.282 106.295C178.64 105.955 178.913 105.537 179.1 105.043L184.137 105.375C183.881 106.585 183.357 107.642 182.565 108.545C181.78 109.44 180.766 110.139 179.522 110.642C178.286 111.136 176.859 111.384 175.239 111.384ZM205.586 91.3636L198.72 111H192.584L185.719 91.3636H191.472L195.55 105.413H195.755L199.82 91.3636H205.586ZM216.689 111.384C214.669 111.384 212.93 110.974 211.473 110.156C210.024 109.33 208.907 108.162 208.123 106.653C207.339 105.136 206.947 103.342 206.947 101.271C206.947 99.2514 207.339 97.4787 208.123 95.9531C208.907 94.4276 210.011 93.2386 211.434 92.3864C212.866 91.5341 214.545 91.108 216.471 91.108C217.767 91.108 218.973 91.3168 220.089 91.7344C221.214 92.1435 222.194 92.7614 223.029 93.5881C223.873 94.4148 224.529 95.4545 224.998 96.7074C225.467 97.9517 225.701 99.4091 225.701 101.08V102.575H209.12V99.2003H220.575C220.575 98.4162 220.404 97.7216 220.064 97.1165C219.723 96.5114 219.25 96.0384 218.644 95.6974C218.048 95.348 217.353 95.1733 216.561 95.1733C215.734 95.1733 215.001 95.3651 214.362 95.7486C213.731 96.1236 213.237 96.6307 212.879 97.2699C212.521 97.9006 212.338 98.6037 212.329 99.3793V102.588C212.329 103.56 212.508 104.399 212.866 105.107C213.233 105.814 213.748 106.359 214.413 106.743C215.078 107.126 215.866 107.318 216.778 107.318C217.383 107.318 217.937 107.233 218.44 107.062C218.943 106.892 219.373 106.636 219.731 106.295C220.089 105.955 220.362 105.537 220.549 105.043L225.586 105.375C225.331 106.585 224.806 107.642 224.014 108.545C223.23 109.44 222.215 110.139 220.971 110.642C219.735 111.136 218.308 111.384 216.689 111.384ZM234.701 84.8182V111H229.255V84.8182H234.701ZM247.936 111.384C245.95 111.384 244.233 110.962 242.784 110.118C241.344 109.266 240.231 108.081 239.447 106.564C238.663 105.038 238.271 103.27 238.271 101.259C238.271 99.2301 238.663 97.4574 239.447 95.9403C240.231 94.4148 241.344 93.2301 242.784 92.3864C244.233 91.5341 245.95 91.108 247.936 91.108C249.922 91.108 251.635 91.5341 253.075 92.3864C254.524 93.2301 255.641 94.4148 256.425 95.9403C257.209 97.4574 257.601 99.2301 257.601 101.259C257.601 103.27 257.209 105.038 256.425 106.564C255.641 108.081 254.524 109.266 253.075 110.118C251.635 110.962 249.922 111.384 247.936 111.384ZM247.962 107.165C248.865 107.165 249.619 106.909 250.224 106.398C250.829 105.878 251.285 105.17 251.592 104.276C251.908 103.381 252.065 102.362 252.065 101.22C252.065 100.078 251.908 99.0597 251.592 98.1648C251.285 97.2699 250.829 96.5625 250.224 96.0426C249.619 95.5227 248.865 95.2628 247.962 95.2628C247.05 95.2628 246.283 95.5227 245.66 96.0426C245.047 96.5625 244.582 97.2699 244.267 98.1648C243.96 99.0597 243.807 100.078 243.807 101.22C243.807 102.362 243.96 103.381 244.267 104.276C244.582 105.17 245.047 105.878 245.66 106.398C246.283 106.909 247.05 107.165 247.962 107.165ZM261.142 118.364V91.3636H266.511V94.6619H266.754C266.993 94.1335 267.338 93.5966 267.79 93.0511C268.25 92.4972 268.847 92.0369 269.579 91.6705C270.321 91.2955 271.241 91.108 272.341 91.108C273.773 91.108 275.094 91.483 276.304 92.233C277.514 92.9744 278.481 94.0952 279.206 95.5952C279.93 97.0866 280.293 98.9574 280.293 101.207C280.293 103.398 279.939 105.247 279.231 106.756C278.533 108.256 277.578 109.393 276.368 110.169C275.166 110.936 273.82 111.32 272.328 111.32C271.271 111.32 270.372 111.145 269.631 110.795C268.898 110.446 268.297 110.007 267.828 109.479C267.359 108.942 267.001 108.401 266.754 107.855H266.588V118.364H261.142ZM266.473 101.182C266.473 102.349 266.635 103.368 266.959 104.237C267.283 105.107 267.751 105.784 268.365 106.27C268.979 106.747 269.724 106.986 270.602 106.986C271.489 106.986 272.239 106.743 272.852 106.257C273.466 105.763 273.93 105.081 274.246 104.212C274.57 103.334 274.731 102.324 274.731 101.182C274.731 100.048 274.574 99.0511 274.258 98.1903C273.943 97.3295 273.479 96.6562 272.865 96.1705C272.251 95.6847 271.497 95.4418 270.602 95.4418C269.716 95.4418 268.966 95.6761 268.352 96.1449C267.747 96.6136 267.283 97.2784 266.959 98.1392C266.635 99 266.473 100.014 266.473 101.182ZM292.872 111.384C290.852 111.384 289.114 110.974 287.656 110.156C286.207 109.33 285.091 108.162 284.307 106.653C283.523 105.136 283.131 103.342 283.131 101.271C283.131 99.2514 283.523 97.4787 284.307 95.9531C285.091 94.4276 286.195 93.2386 287.618 92.3864C289.05 91.5341 290.729 91.108 292.655 91.108C293.95 91.108 295.156 91.3168 296.273 91.7344C297.398 92.1435 298.378 92.7614 299.213 93.5881C300.057 94.4148 300.713 95.4545 301.182 96.7074C301.651 97.9517 301.885 99.4091 301.885 101.08V102.575H285.304V99.2003H296.758C296.758 98.4162 296.588 97.7216 296.247 97.1165C295.906 96.5114 295.433 96.0384 294.828 95.6974C294.231 95.348 293.537 95.1733 292.744 95.1733C291.918 95.1733 291.185 95.3651 290.545 95.7486C289.915 96.1236 289.42 96.6307 289.062 97.2699C288.704 97.9006 288.521 98.6037 288.513 99.3793V102.588C288.513 103.56 288.692 104.399 289.05 105.107C289.416 105.814 289.932 106.359 290.597 106.743C291.261 107.126 292.05 107.318 292.962 107.318C293.567 107.318 294.121 107.233 294.624 107.062C295.126 106.892 295.557 106.636 295.915 106.295C296.273 105.955 296.545 105.537 296.733 105.043L301.77 105.375C301.514 106.585 300.99 107.642 300.197 108.545C299.413 109.44 298.399 110.139 297.155 110.642C295.919 111.136 294.491 111.384 292.872 111.384ZM305.439 111V91.3636H310.719V94.7898H310.923C311.281 93.571 311.882 92.6506 312.726 92.0284C313.57 91.3977 314.541 91.0824 315.641 91.0824C315.913 91.0824 316.207 91.0994 316.523 91.1335C316.838 91.1676 317.115 91.2145 317.354 91.2741V96.1065C317.098 96.0298 316.744 95.9616 316.293 95.902C315.841 95.8423 315.427 95.8125 315.052 95.8125C314.251 95.8125 313.535 95.9872 312.905 96.3366C312.283 96.6776 311.788 97.1548 311.422 97.7685C311.064 98.3821 310.885 99.0895 310.885 99.8906V111H305.439Z" fill="#2A8BA9"/>
<path d="M169.979 48.348C169.876 47.3168 169.437 46.5156 168.662 45.9446C167.886 45.3736 166.834 45.0881 165.504 45.0881C164.601 45.0881 163.838 45.2159 163.216 45.4716C162.594 45.7188 162.116 46.0639 161.784 46.5071C161.46 46.9503 161.298 47.4531 161.298 48.0156C161.281 48.4844 161.379 48.8935 161.592 49.2429C161.814 49.5923 162.116 49.8949 162.5 50.1506C162.883 50.3977 163.327 50.6151 163.829 50.8026C164.332 50.9815 164.869 51.1349 165.44 51.2628L167.793 51.8253C168.935 52.081 169.983 52.4219 170.937 52.848C171.892 53.2741 172.719 53.7983 173.418 54.4205C174.116 55.0426 174.658 55.7756 175.041 56.6193C175.433 57.4631 175.633 58.4304 175.642 59.5213C175.633 61.1236 175.224 62.5128 174.415 63.6889C173.614 64.8565 172.454 65.7642 170.937 66.4119C169.429 67.0511 167.609 67.3707 165.479 67.3707C163.365 67.3707 161.524 67.0469 159.956 66.3991C158.396 65.7514 157.177 64.7926 156.3 63.5227C155.43 62.2443 154.974 60.6634 154.932 58.7798H160.288C160.348 59.6577 160.599 60.3906 161.043 60.9787C161.494 61.5582 162.095 61.9972 162.845 62.2955C163.604 62.5852 164.46 62.7301 165.415 62.7301C166.352 62.7301 167.166 62.5937 167.856 62.321C168.555 62.0483 169.097 61.669 169.48 61.1832C169.864 60.6974 170.055 60.1392 170.055 59.5085C170.055 58.9205 169.881 58.4261 169.531 58.0256C169.19 57.625 168.687 57.2841 168.023 57.0028C167.366 56.7216 166.561 56.4659 165.606 56.2358L162.756 55.5199C160.548 54.983 158.805 54.1435 157.527 53.0014C156.249 51.8594 155.614 50.321 155.622 48.3864C155.614 46.8011 156.035 45.4162 156.888 44.2315C157.749 43.0469 158.929 42.1222 160.429 41.4574C161.929 40.7926 163.633 40.4602 165.543 40.4602C167.486 40.4602 169.182 40.7926 170.631 41.4574C172.088 42.1222 173.222 43.0469 174.031 44.2315C174.841 45.4162 175.258 46.7884 175.284 48.348H169.979ZM189.708 47.3636V51.4545H177.882V47.3636H189.708ZM180.567 42.6591H186.013V60.9659C186.013 61.4687 186.09 61.8608 186.243 62.142C186.397 62.4148 186.61 62.6065 186.882 62.7173C187.164 62.8281 187.488 62.8835 187.854 62.8835C188.11 62.8835 188.365 62.8622 188.621 62.8196C188.877 62.7685 189.073 62.7301 189.209 62.7045L190.066 66.7571C189.793 66.8423 189.409 66.9403 188.915 67.0511C188.421 67.1705 187.82 67.2429 187.113 67.2685C185.8 67.3196 184.649 67.1449 183.661 66.7443C182.681 66.3437 181.918 65.7216 181.372 64.8778C180.827 64.0341 180.559 62.9687 180.567 61.6818V42.6591ZM198.855 67.3707C197.602 67.3707 196.485 67.1534 195.505 66.7188C194.525 66.2756 193.75 65.6236 193.179 64.7628C192.616 63.8935 192.335 62.8111 192.335 61.5156C192.335 60.4247 192.535 59.5085 192.936 58.767C193.336 58.0256 193.882 57.429 194.572 56.9773C195.262 56.5256 196.046 56.1847 196.924 55.9545C197.811 55.7244 198.74 55.5625 199.711 55.4688C200.853 55.3494 201.774 55.2386 202.473 55.1364C203.171 55.0256 203.679 54.8636 203.994 54.6506C204.309 54.4375 204.467 54.1222 204.467 53.7045V53.6278C204.467 52.8182 204.211 52.1918 203.7 51.7486C203.197 51.3054 202.481 51.0838 201.552 51.0838C200.572 51.0838 199.792 51.3011 199.213 51.7358C198.633 52.1619 198.25 52.6989 198.062 53.3466L193.025 52.9375C193.281 51.7443 193.784 50.7131 194.534 49.8438C195.284 48.9659 196.251 48.2926 197.436 47.8239C198.629 47.3466 200.01 47.108 201.578 47.108C202.669 47.108 203.713 47.2358 204.71 47.4915C205.715 47.7472 206.606 48.1435 207.382 48.6804C208.166 49.2173 208.784 49.9077 209.235 50.7514C209.687 51.5866 209.913 52.5881 209.913 53.7557V67H204.748V64.277H204.595C204.279 64.8906 203.858 65.4318 203.329 65.9006C202.801 66.3608 202.166 66.723 201.424 66.9872C200.683 67.2429 199.826 67.3707 198.855 67.3707ZM200.414 63.6122C201.215 63.6122 201.923 63.4545 202.537 63.1392C203.15 62.8153 203.632 62.3807 203.981 61.8352C204.331 61.2898 204.505 60.6719 204.505 59.9815V57.8977C204.335 58.0085 204.1 58.1108 203.802 58.2045C203.512 58.2898 203.184 58.3707 202.818 58.4474C202.451 58.5156 202.085 58.5795 201.718 58.6392C201.352 58.6903 201.019 58.7372 200.721 58.7798C200.082 58.8736 199.524 59.0227 199.046 59.2273C198.569 59.4318 198.198 59.7088 197.934 60.0582C197.67 60.3991 197.538 60.8253 197.538 61.3366C197.538 62.0781 197.806 62.6449 198.343 63.0369C198.889 63.4205 199.579 63.6122 200.414 63.6122ZM223.01 67.3835C220.999 67.3835 219.269 66.9574 217.82 66.1051C216.38 65.2443 215.272 64.0511 214.496 62.5256C213.729 61 213.345 59.2443 213.345 57.2585C213.345 55.2472 213.733 53.483 214.509 51.9659C215.293 50.4403 216.405 49.2514 217.845 48.3991C219.286 47.5384 220.999 47.108 222.985 47.108C224.698 47.108 226.198 47.419 227.485 48.0412C228.772 48.6634 229.79 49.5369 230.54 50.6619C231.29 51.7869 231.703 53.108 231.78 54.625H226.641C226.496 53.6449 226.113 52.8565 225.49 52.2599C224.877 51.6548 224.071 51.3523 223.074 51.3523C222.23 51.3523 221.493 51.5824 220.863 52.0426C220.24 52.4943 219.755 53.1548 219.405 54.0241C219.056 54.8935 218.881 55.946 218.881 57.1818C218.881 58.4347 219.051 59.5 219.392 60.3778C219.742 61.2557 220.232 61.9247 220.863 62.3849C221.493 62.8452 222.23 63.0753 223.074 63.0753C223.696 63.0753 224.255 62.9474 224.749 62.6918C225.252 62.4361 225.665 62.0653 225.989 61.5795C226.321 61.0852 226.539 60.4929 226.641 59.8026H231.78C231.695 61.3026 231.286 62.6236 230.553 63.7656C229.828 64.8991 228.827 65.7855 227.549 66.4247C226.27 67.0639 224.757 67.3835 223.01 67.3835ZM240.202 61.3494L240.214 54.8168H241.007L247.297 47.3636H253.548L245.098 57.233H243.807L240.202 61.3494ZM235.267 67V40.8182H240.713V67H235.267ZM247.54 67L241.761 58.4474L245.392 54.5994L253.919 67H247.54ZM58.169 111L50.6775 84.8182H56.7244L61.0582 103.01H61.2755L66.0568 84.8182H71.2343L76.0028 103.048H76.2329L80.5667 84.8182H86.6136L79.1221 111H73.7272L68.7414 93.8821H68.5369L63.5639 111H58.169ZM96.3135 111.384C94.2936 111.384 92.555 110.974 91.0976 110.156C89.6487 109.33 88.5323 108.162 87.7482 106.653C86.9641 105.136 86.572 103.342 86.572 101.271C86.572 99.2514 86.9641 97.4787 87.7482 95.9531C88.5323 94.4276 89.6359 93.2386 91.0592 92.3864C92.4911 91.5341 94.17 91.108 96.0962 91.108C97.3916 91.108 98.5976 91.3168 99.7141 91.7344C100.839 92.1435 101.819 92.7614 102.654 93.5881C103.498 94.4148 104.154 95.4545 104.623 96.7074C105.092 97.9517 105.326 99.4091 105.326 101.08V102.575H88.7453V99.2003H100.2C100.2 98.4162 100.029 97.7216 99.6885 97.1165C99.3476 96.5114 98.8746 96.0384 98.2695 95.6974C97.6729 95.348 96.9783 95.1733 96.1857 95.1733C95.359 95.1733 94.626 95.3651 93.9868 95.7486C93.3561 96.1236 92.8618 96.6307 92.5038 97.2699C92.1459 97.9006 91.9627 98.6037 91.9541 99.3793V102.588C91.9541 103.56 92.1331 104.399 92.4911 105.107C92.8575 105.814 93.3732 106.359 94.0379 106.743C94.7027 107.126 95.4911 107.318 96.403 107.318C97.0081 107.318 97.5621 107.233 98.0649 107.062C98.5678 106.892 98.9982 106.636 99.3561 106.295C99.7141 105.955 99.9868 105.537 100.174 105.043L105.211 105.375C104.956 106.585 104.431 107.642 103.639 108.545C102.855 109.44 101.84 110.139 100.596 110.642C99.3604 111.136 97.9328 111.384 96.3135 111.384ZM108.983 111V84.8182H114.429V94.6619H114.595C114.833 94.1335 115.179 93.5966 115.63 93.0511C116.09 92.4972 116.687 92.0369 117.42 91.6705C118.162 91.2955 119.082 91.108 120.181 91.108C121.613 91.108 122.934 91.483 124.144 92.233C125.355 92.9744 126.322 94.0952 127.046 95.5952C127.771 97.0866 128.133 98.9574 128.133 101.207C128.133 103.398 127.779 105.247 127.072 106.756C126.373 108.256 125.419 109.393 124.208 110.169C123.007 110.936 121.66 111.32 120.169 111.32C119.112 111.32 118.213 111.145 117.471 110.795C116.738 110.446 116.137 110.007 115.669 109.479C115.2 108.942 114.842 108.401 114.595 107.855H114.352V111H108.983ZM114.314 101.182C114.314 102.349 114.475 103.368 114.799 104.237C115.123 105.107 115.592 105.784 116.206 106.27C116.819 106.747 117.565 106.986 118.443 106.986C119.329 106.986 120.079 106.743 120.693 106.257C121.306 105.763 121.771 105.081 122.086 104.212C122.41 103.334 122.572 102.324 122.572 101.182C122.572 100.048 122.414 99.0511 122.099 98.1903C121.784 97.3295 121.319 96.6562 120.706 96.1705C120.092 95.6847 119.338 95.4418 118.443 95.4418C117.556 95.4418 116.806 95.6761 116.193 96.1449C115.588 96.6136 115.123 97.2784 114.799 98.1392C114.475 99 114.314 100.014 114.314 101.182Z" fill="#022631"/>
</g>
<defs>
<filter id="filter0_d_1_6" x="0.67749" y="0.46022" width="366.676" height="177.903" filterUnits="userSpaceOnUse" color-interpolation-filters="sRGB">
<feFlood flood-opacity="0" result="BackgroundImageFix"/>
<feColorMatrix in="SourceAlpha" type="matrix" values="0 0 0 0 0 0 0 0 0 0 0 0 0 0 0 0 0 0 127 0" result="hardAlpha"/>
<feOffset dy="10"/>
<feGaussianBlur stdDeviation="25"/>
<feComposite in2="hardAlpha" operator="out"/>
<feColorMatrix type="matrix" values="0 0 0 0 0 0 0 0 0 0 0 0 0 0 0 0 0 0 0.6 0"/>
<feBlend mode="normal" in2="BackgroundImageFix" result="effect1_dropShadow_1_6"/>
<feBlend mode="normal" in="SourceGraphic" in2="effect1_dropShadow_1_6" result="shape"/>
</filter>
</defs>
</svg>
