<svg width="535" height="199" viewBox="0 0 535 199" fill="none" xmlns="http://www.w3.org/2000/svg">
<g filter="url(#filter0_d_1_6)">
<path d="M92.2954 68V21.4545H123.114V29.5682H102.136V40.6591H121.068V48.7727H102.136V68H92.2954ZM149.75 53.1364V33.0909H159.432V68H150.136V61.6591H149.773C148.985 63.7045 147.674 65.3485 145.841 66.5909C144.023 67.8333 141.803 68.4545 139.182 68.4545C136.848 68.4545 134.795 67.9242 133.023 66.8636C131.25 65.803 129.864 64.2955 128.864 62.3409C127.879 60.3864 127.379 58.0455 127.364 55.3182V33.0909H137.045V53.5909C137.061 55.6515 137.614 57.2803 138.704 58.4773C139.795 59.6742 141.258 60.2727 143.091 60.2727C144.258 60.2727 145.348 60.0076 146.364 59.4773C147.379 58.9318 148.197 58.1288 148.818 57.0682C149.454 56.0076 149.765 54.697 149.75 53.1364ZM176.858 21.4545V68H167.176V21.4545H176.858ZM194.295 21.4545V68H184.614V21.4545H194.295ZM205.858 145H189.358V98.4545H205.994C210.676 98.4545 214.706 99.3864 218.085 101.25C221.464 103.098 224.062 105.758 225.881 109.227C227.714 112.697 228.631 116.848 228.631 121.682C228.631 126.53 227.714 130.697 225.881 134.182C224.062 137.667 221.449 140.341 218.04 142.205C214.646 144.068 210.585 145 205.858 145ZM199.199 136.568H205.449C208.358 136.568 210.805 136.053 212.79 135.023C214.79 133.977 216.29 132.364 217.29 130.182C218.305 127.985 218.812 125.152 218.812 121.682C218.812 118.242 218.305 115.432 217.29 113.25C216.29 111.068 214.797 109.462 212.812 108.432C210.828 107.402 208.381 106.886 205.472 106.886H199.199V136.568ZM251.648 145.682C248.057 145.682 244.966 144.955 242.375 143.5C239.799 142.03 237.814 139.955 236.42 137.273C235.026 134.576 234.329 131.386 234.329 127.705C234.329 124.114 235.026 120.962 236.42 118.25C237.814 115.538 239.776 113.424 242.307 111.909C244.852 110.394 247.837 109.636 251.261 109.636C253.564 109.636 255.708 110.008 257.693 110.75C259.693 111.477 261.436 112.576 262.92 114.045C264.42 115.515 265.587 117.364 266.42 119.591C267.254 121.803 267.67 124.394 267.67 127.364V130.023H238.193V124.023H258.557C258.557 122.629 258.254 121.394 257.648 120.318C257.042 119.242 256.201 118.402 255.125 117.795C254.064 117.174 252.829 116.864 251.42 116.864C249.951 116.864 248.648 117.205 247.511 117.886C246.39 118.553 245.511 119.455 244.875 120.591C244.239 121.712 243.913 122.962 243.898 124.341V130.045C243.898 131.773 244.216 133.265 244.852 134.523C245.504 135.78 246.42 136.75 247.602 137.432C248.784 138.114 250.186 138.455 251.807 138.455C252.883 138.455 253.867 138.303 254.761 138C255.655 137.697 256.42 137.242 257.057 136.636C257.693 136.03 258.178 135.288 258.511 134.409L267.466 135C267.011 137.152 266.079 139.03 264.67 140.636C263.276 142.227 261.473 143.47 259.261 144.364C257.064 145.242 254.526 145.682 251.648 145.682ZM305.597 110.091L293.392 145H282.483L270.278 110.091H280.506L287.756 135.068H288.119L295.347 110.091H305.597ZM325.335 145.682C321.744 145.682 318.653 144.955 316.062 143.5C313.487 142.03 311.502 139.955 310.108 137.273C308.714 134.576 308.017 131.386 308.017 127.705C308.017 124.114 308.714 120.962 310.108 118.25C311.502 115.538 313.464 113.424 315.994 111.909C318.54 110.394 321.525 109.636 324.949 109.636C327.252 109.636 329.396 110.008 331.381 110.75C333.381 111.477 335.123 112.576 336.608 114.045C338.108 115.515 339.275 117.364 340.108 119.591C340.941 121.803 341.358 124.394 341.358 127.364V130.023H311.881V124.023H332.244C332.244 122.629 331.941 121.394 331.335 120.318C330.729 119.242 329.888 118.402 328.812 117.795C327.752 117.174 326.517 116.864 325.108 116.864C323.638 116.864 322.335 117.205 321.199 117.886C320.078 118.553 319.199 119.455 318.562 120.591C317.926 121.712 317.6 122.962 317.585 124.341V130.045C317.585 131.773 317.903 133.265 318.54 134.523C319.191 135.78 320.108 136.75 321.29 137.432C322.472 138.114 323.873 138.455 325.494 138.455C326.57 138.455 327.555 138.303 328.449 138C329.343 137.697 330.108 137.242 330.744 136.636C331.381 136.03 331.865 135.288 332.199 134.409L341.153 135C340.699 137.152 339.767 139.03 338.358 140.636C336.964 142.227 335.161 143.47 332.949 144.364C330.752 145.242 328.214 145.682 325.335 145.682ZM357.358 98.4545V145H347.676V98.4545H357.358ZM380.886 145.682C377.356 145.682 374.303 144.932 371.727 143.432C369.167 141.917 367.189 139.811 365.795 137.114C364.401 134.402 363.704 131.258 363.704 127.682C363.704 124.076 364.401 120.924 365.795 118.227C367.189 115.515 369.167 113.409 371.727 111.909C374.303 110.394 377.356 109.636 380.886 109.636C384.417 109.636 387.462 110.394 390.023 111.909C392.598 113.409 394.583 115.515 395.977 118.227C397.371 120.924 398.068 124.076 398.068 127.682C398.068 131.258 397.371 134.402 395.977 137.114C394.583 139.811 392.598 141.917 390.023 143.432C387.462 144.932 384.417 145.682 380.886 145.682ZM380.932 138.182C382.538 138.182 383.879 137.727 384.954 136.818C386.03 135.894 386.841 134.636 387.386 133.045C387.947 131.455 388.227 129.644 388.227 127.614C388.227 125.583 387.947 123.773 387.386 122.182C386.841 120.591 386.03 119.333 384.954 118.409C383.879 117.485 382.538 117.023 380.932 117.023C379.311 117.023 377.947 117.485 376.841 118.409C375.75 119.333 374.924 120.591 374.364 122.182C373.818 123.773 373.545 125.583 373.545 127.614C373.545 129.644 373.818 131.455 374.364 133.045C374.924 134.636 375.75 135.894 376.841 136.818C377.947 137.727 379.311 138.182 380.932 138.182ZM404.364 158.091V110.091H413.909V115.955H414.341C414.765 115.015 415.379 114.061 416.182 113.091C417 112.106 418.061 111.288 419.364 110.636C420.682 109.97 422.318 109.636 424.273 109.636C426.818 109.636 429.167 110.303 431.318 111.636C433.47 112.955 435.189 114.947 436.477 117.614C437.765 120.265 438.409 123.591 438.409 127.591C438.409 131.485 437.78 134.773 436.523 137.455C435.28 140.121 433.583 142.144 431.432 143.523C429.295 144.886 426.901 145.568 424.25 145.568C422.371 145.568 420.773 145.258 419.454 144.636C418.151 144.015 417.083 143.235 416.25 142.295C415.417 141.341 414.78 140.379 414.341 139.409H414.045V158.091H404.364ZM413.841 127.545C413.841 129.621 414.129 131.432 414.704 132.977C415.28 134.523 416.114 135.727 417.204 136.591C418.295 137.439 419.621 137.864 421.182 137.864C422.758 137.864 424.091 137.432 425.182 136.568C426.273 135.689 427.098 134.477 427.659 132.932C428.235 131.371 428.523 129.576 428.523 127.545C428.523 125.53 428.242 123.758 427.682 122.227C427.121 120.697 426.295 119.5 425.204 118.636C424.114 117.773 422.773 117.341 421.182 117.341C419.606 117.341 418.273 117.758 417.182 118.591C416.106 119.424 415.28 120.606 414.704 122.136C414.129 123.667 413.841 125.47 413.841 127.545ZM460.773 145.682C457.182 145.682 454.091 144.955 451.5 143.5C448.924 142.03 446.939 139.955 445.545 137.273C444.151 134.576 443.454 131.386 443.454 127.705C443.454 124.114 444.151 120.962 445.545 118.25C446.939 115.538 448.901 113.424 451.432 111.909C453.977 110.394 456.962 109.636 460.386 109.636C462.689 109.636 464.833 110.008 466.818 110.75C468.818 111.477 470.561 112.576 472.045 114.045C473.545 115.515 474.712 117.364 475.545 119.591C476.379 121.803 476.795 124.394 476.795 127.364V130.023H447.318V124.023H467.682C467.682 122.629 467.379 121.394 466.773 120.318C466.167 119.242 465.326 118.402 464.25 117.795C463.189 117.174 461.954 116.864 460.545 116.864C459.076 116.864 457.773 117.205 456.636 117.886C455.515 118.553 454.636 119.455 454 120.591C453.364 121.712 453.038 122.962 453.023 124.341V130.045C453.023 131.773 453.341 133.265 453.977 134.523C454.629 135.78 455.545 136.75 456.727 137.432C457.909 138.114 459.311 138.455 460.932 138.455C462.008 138.455 462.992 138.303 463.886 138C464.78 137.697 465.545 137.242 466.182 136.636C466.818 136.03 467.303 135.288 467.636 134.409L476.591 135C476.136 137.152 475.204 139.03 473.795 140.636C472.401 142.227 470.598 143.47 468.386 144.364C466.189 145.242 463.651 145.682 460.773 145.682ZM483.114 145V110.091H492.5V116.182H492.864C493.5 114.015 494.568 112.379 496.068 111.273C497.568 110.152 499.295 109.591 501.25 109.591C501.735 109.591 502.258 109.621 502.818 109.682C503.379 109.742 503.871 109.826 504.295 109.932V118.523C503.841 118.386 503.212 118.265 502.409 118.159C501.606 118.053 500.871 118 500.204 118C498.78 118 497.508 118.311 496.386 118.932C495.28 119.538 494.401 120.386 493.75 121.477C493.114 122.568 492.795 123.826 492.795 125.25V145H483.114Z" fill="#2A8BA9"/>
<path d="M242.295 34.8409C242.114 33.0076 241.333 31.5833 239.954 30.5682C238.576 29.553 236.704 29.0455 234.341 29.0455C232.735 29.0455 231.379 29.2727 230.273 29.7273C229.167 30.1667 228.318 30.7803 227.727 31.5682C227.151 32.3561 226.864 33.25 226.864 34.25C226.833 35.0833 227.008 35.8106 227.386 36.4318C227.78 37.053 228.318 37.5909 229 38.0455C229.682 38.4848 230.47 38.8712 231.364 39.2045C232.258 39.5227 233.212 39.7955 234.227 40.0227L238.409 41.0227C240.439 41.4773 242.303 42.0833 244 42.8409C245.697 43.5985 247.167 44.5303 248.409 45.6364C249.651 46.7424 250.614 48.0455 251.295 49.5455C251.992 51.0455 252.348 52.7652 252.364 54.7045C252.348 57.553 251.621 60.0227 250.182 62.1136C248.758 64.1894 246.697 65.803 244 66.9545C241.318 68.0909 238.083 68.6591 234.295 68.6591C230.538 68.6591 227.265 68.0833 224.477 66.9318C221.704 65.7803 219.538 64.0758 217.977 61.8182C216.432 59.5455 215.621 56.7348 215.545 53.3864H225.068C225.174 54.947 225.621 56.25 226.409 57.2955C227.212 58.3258 228.28 59.1061 229.614 59.6364C230.962 60.1515 232.485 60.4091 234.182 60.4091C235.848 60.4091 237.295 60.1667 238.523 59.6818C239.765 59.197 240.727 58.5227 241.409 57.6591C242.091 56.7955 242.432 55.803 242.432 54.6818C242.432 53.6364 242.121 52.7576 241.5 52.0455C240.894 51.3333 240 50.7273 238.818 50.2273C237.651 49.7273 236.22 49.2727 234.523 48.8636L229.454 47.5909C225.53 46.6364 222.432 45.1439 220.159 43.1136C217.886 41.0833 216.758 38.3485 216.773 34.9091C216.758 32.0909 217.508 29.6288 219.023 27.5227C220.553 25.4167 222.651 23.7727 225.318 22.5909C227.985 21.4091 231.015 20.8182 234.409 20.8182C237.864 20.8182 240.879 21.4091 243.454 22.5909C246.045 23.7727 248.061 25.4167 249.5 27.5227C250.939 29.6288 251.682 32.0682 251.727 34.8409H242.295ZM277.369 33.0909V40.3636H256.347V33.0909H277.369ZM261.119 24.7273H270.801V57.2727C270.801 58.1667 270.937 58.8636 271.21 59.3636C271.483 59.8485 271.862 60.1894 272.347 60.3864C272.847 60.5833 273.422 60.6818 274.074 60.6818C274.528 60.6818 274.983 60.6439 275.437 60.5682C275.892 60.4773 276.24 60.4091 276.483 60.3636L278.006 67.5682C277.521 67.7197 276.839 67.8939 275.96 68.0909C275.081 68.303 274.013 68.4318 272.756 68.4773C270.422 68.5682 268.377 68.2576 266.619 67.5455C264.877 66.8333 263.521 65.7273 262.551 64.2273C261.581 62.7273 261.104 60.8333 261.119 58.5455V24.7273ZM293.631 68.6591C291.403 68.6591 289.418 68.2727 287.676 67.5C285.934 66.7121 284.555 65.553 283.54 64.0227C282.54 62.4773 282.04 60.553 282.04 58.25C282.04 56.3106 282.396 54.6818 283.108 53.3636C283.82 52.0455 284.79 50.9848 286.017 50.1818C287.244 49.3788 288.638 48.7727 290.199 48.3636C291.775 47.9545 293.426 47.6667 295.153 47.5C297.184 47.2879 298.82 47.0909 300.062 46.9091C301.305 46.7121 302.206 46.4242 302.767 46.0455C303.328 45.6667 303.608 45.1061 303.608 44.3636V44.2273C303.608 42.7879 303.153 41.6742 302.244 40.8864C301.35 40.0985 300.078 39.7045 298.426 39.7045C296.684 39.7045 295.297 40.0909 294.267 40.8636C293.237 41.6212 292.555 42.5758 292.222 43.7273L283.267 43C283.722 40.8788 284.615 39.0455 285.949 37.5C287.282 35.9394 289.002 34.7424 291.108 33.9091C293.229 33.0606 295.684 32.6364 298.472 32.6364C300.411 32.6364 302.267 32.8636 304.04 33.3182C305.828 33.7727 307.411 34.4773 308.79 35.4318C310.184 36.3864 311.282 37.6136 312.085 39.1136C312.888 40.5985 313.29 42.3788 313.29 44.4545V68H304.108V63.1591H303.835C303.275 64.25 302.525 65.2121 301.585 66.0455C300.646 66.8636 299.517 67.5076 298.199 67.9773C296.881 68.4318 295.358 68.6591 293.631 68.6591ZM296.403 61.9773C297.828 61.9773 299.085 61.697 300.176 61.1364C301.267 60.5606 302.123 59.7879 302.744 58.8182C303.365 57.8485 303.676 56.75 303.676 55.5227V51.8182C303.373 52.0152 302.956 52.197 302.426 52.3636C301.911 52.5152 301.328 52.6591 300.676 52.7955C300.025 52.9167 299.373 53.0303 298.722 53.1364C298.07 53.2273 297.479 53.3106 296.949 53.3864C295.812 53.553 294.82 53.8182 293.972 54.1818C293.123 54.5455 292.464 55.0379 291.994 55.6591C291.525 56.2652 291.29 57.0227 291.29 57.9318C291.29 59.25 291.767 60.2576 292.722 60.9545C293.691 61.6364 294.919 61.9773 296.403 61.9773ZM336.574 68.6818C332.998 68.6818 329.922 67.9242 327.347 66.4091C324.786 64.8788 322.816 62.7576 321.437 60.0455C320.074 57.3333 319.392 54.2121 319.392 50.6818C319.392 47.1061 320.081 43.9697 321.46 41.2727C322.854 38.5606 324.831 36.447 327.392 34.9318C329.953 33.4015 332.998 32.6364 336.528 32.6364C339.574 32.6364 342.24 33.1894 344.528 34.2955C346.816 35.4015 348.627 36.9545 349.96 38.9545C351.294 40.9545 352.028 43.303 352.165 46H343.028C342.771 44.2576 342.089 42.8561 340.983 41.7955C339.892 40.7197 338.46 40.1818 336.687 40.1818C335.187 40.1818 333.877 40.5909 332.756 41.4091C331.65 42.2121 330.786 43.3864 330.165 44.9318C329.543 46.4773 329.233 48.3485 329.233 50.5455C329.233 52.7727 329.536 54.6667 330.142 56.2273C330.763 57.7879 331.634 58.9773 332.756 59.7955C333.877 60.6136 335.187 61.0227 336.687 61.0227C337.794 61.0227 338.786 60.7955 339.665 60.3409C340.559 59.8864 341.293 59.2273 341.869 58.3636C342.46 57.4848 342.847 56.4318 343.028 55.2045H352.165C352.013 57.8712 351.286 60.2197 349.983 62.25C348.695 64.2652 346.915 65.8409 344.642 66.9773C342.369 68.1136 339.68 68.6818 336.574 68.6818ZM367.136 57.9545L367.159 46.3409H368.568L379.75 33.0909H390.864L375.841 50.6364H373.545L367.136 57.9545ZM358.364 68V21.4545H368.045V68H358.364ZM380.182 68L369.909 52.7955L376.364 45.9545L391.523 68H380.182ZM43.5227 145L30.2045 98.4545H40.9545L48.659 130.795H49.0454L57.5454 98.4545H66.7499L75.2272 130.864H75.6363L83.3409 98.4545H94.0909L80.7727 145H71.1818L62.3181 114.568H61.9545L53.1136 145H43.5227ZM111.335 145.682C107.744 145.682 104.653 144.955 102.062 143.5C99.4867 142.03 97.5018 139.955 96.1079 137.273C94.714 134.576 94.017 131.386 94.017 127.705C94.017 124.114 94.714 120.962 96.1079 118.25C97.5018 115.538 99.464 113.424 101.994 111.909C104.54 110.394 107.525 109.636 110.949 109.636C113.252 109.636 115.396 110.008 117.381 110.75C119.381 111.477 121.123 112.576 122.608 114.045C124.108 115.515 125.275 117.364 126.108 119.591C126.941 121.803 127.358 124.394 127.358 127.364V130.023H97.8806V124.023H118.244C118.244 122.629 117.941 121.394 117.335 120.318C116.729 119.242 115.888 118.402 114.812 117.795C113.752 117.174 112.517 116.864 111.108 116.864C109.638 116.864 108.335 117.205 107.199 117.886C106.078 118.553 105.199 119.455 104.562 120.591C103.926 121.712 103.6 122.962 103.585 124.341V130.045C103.585 131.773 103.903 133.265 104.54 134.523C105.191 135.78 106.108 136.75 107.29 137.432C108.472 138.114 109.873 138.455 111.494 138.455C112.57 138.455 113.555 138.303 114.449 138C115.343 137.697 116.108 137.242 116.744 136.636C117.381 136.03 117.865 135.288 118.199 134.409L127.153 135C126.699 137.152 125.767 139.03 124.358 140.636C122.964 142.227 121.161 143.47 118.949 144.364C116.752 145.242 114.214 145.682 111.335 145.682ZM133.858 145V98.4545H143.54V115.955H143.835C144.259 115.015 144.873 114.061 145.676 113.091C146.494 112.106 147.555 111.288 148.858 110.636C150.176 109.97 151.812 109.636 153.767 109.636C156.312 109.636 158.661 110.303 160.812 111.636C162.964 112.955 164.684 114.947 165.972 117.614C167.259 120.265 167.903 123.591 167.903 127.591C167.903 131.485 167.275 134.773 166.017 137.455C164.775 140.121 163.078 142.144 160.926 143.523C158.79 144.886 156.396 145.568 153.744 145.568C151.865 145.568 150.267 145.258 148.949 144.636C147.646 144.015 146.578 143.235 145.744 142.295C144.911 141.341 144.275 140.379 143.835 139.409H143.403V145H133.858ZM143.335 127.545C143.335 129.621 143.623 131.432 144.199 132.977C144.775 134.523 145.608 135.727 146.699 136.591C147.79 137.439 149.115 137.864 150.676 137.864C152.252 137.864 153.585 137.432 154.676 136.568C155.767 135.689 156.593 134.477 157.153 132.932C157.729 131.371 158.017 129.576 158.017 127.545C158.017 125.53 157.737 123.758 157.176 122.227C156.615 120.697 155.79 119.5 154.699 118.636C153.608 117.773 152.267 117.341 150.676 117.341C149.1 117.341 147.767 117.758 146.676 118.591C145.6 119.424 144.775 120.606 144.199 122.136C143.623 123.667 143.335 125.47 143.335 127.545Z" fill="#022631"/>
</g>
<defs>
<filter id="filter0_d_1_6" x="0.204468" y="0.818176" width="534.091" height="197.273" filterUnits="userSpaceOnUse" color-interpolation-filters="sRGB">
<feFlood flood-opacity="0" result="BackgroundImageFix"/>
<feColorMatrix in="SourceAlpha" type="matrix" values="0 0 0 0 0 0 0 0 0 0 0 0 0 0 0 0 0 0 127 0" result="hardAlpha"/>
<feOffset dy="10"/>
<feGaussianBlur stdDeviation="15"/>
<feComposite in2="hardAlpha" operator="out"/>
<feColorMatrix type="matrix" values="0 0 0 0 0 0 0 0 0 0 0 0 0 0 0 0 0 0 0.5 0"/>
<feBlend mode="normal" in2="BackgroundImageFix" result="effect1_dropShadow_1_6"/>
<feBlend mode="normal" in="SourceGraphic" in2="effect1_dropShadow_1_6" result="shape"/>
</filter>
</defs>
</svg>
